<svg width="148" height="168" viewBox="0 0 148 168" fill="none" xmlns="http://www.w3.org/2000/svg">
<path d="M85.3988 11.9678C85.3988 18.2632 80.2953 23.3666 74 23.3666C67.7047 23.3666 62.6012 18.2632 62.6012 11.9678C62.6012 5.67252 67.7047 0.569092 74 0.569092C80.2953 0.569092 85.3988 5.67252 85.3988 11.9678Z" fill="#3D3D66"/>
<path d="M147.744 119.702C147.744 125.997 142.64 131.1 136.345 131.1C130.049 131.1 124.946 125.997 124.946 119.702C124.946 113.406 130.049 108.303 136.345 108.303C142.64 108.303 147.744 113.406 147.744 119.702Z" fill="#3D3D66"/>
<path d="M23.0534 119.702C23.0534 125.997 17.95 131.1 11.6546 131.1C5.35932 131.1 0.25589 125.997 0.25589 119.702C0.25589 113.406 5.35932 108.303 11.6546 108.303C17.95 108.303 23.0534 113.406 23.0534 119.702Z" fill="#3D3D66"/>
<path d="M101.259 83.9599C101.259 99.0144 89.0545 111.219 74 111.219C58.9455 111.219 46.7413 99.0144 46.7413 83.9599C46.7413 68.9053 58.9455 56.7012 74 56.7012C89.0545 56.7012 101.259 68.9053 101.259 83.9599Z" fill="#27273B"/>
<path d="M145.993 83.96C145.993 123.721 113.761 155.953 74 155.953C34.2391 155.953 2.00659 123.721 2.00659 83.96C2.00659 44.1991 34.2391 11.9666 74 11.9666C113.761 11.9666 145.993 44.1991 145.993 83.96Z" stroke="#F7F7F7" stroke-width="0.286458" stroke-miterlimit="10"/>
<path d="M74 125.21C51.2184 125.21 32.7502 106.742 32.7502 83.96C32.7502 61.1784 51.2184 42.7102 74 42.7102C96.7816 42.7102 115.25 61.1784 115.25 83.96C115.25 106.742 96.7816 125.21 74 125.21Z" stroke="#F7F7F7" stroke-width="0.286458" stroke-miterlimit="10"/>
<path d="M85.3988 155.951C85.3988 162.247 80.2953 167.35 74 167.35C67.7047 167.35 62.6012 162.247 62.6012 155.951C62.6012 149.656 67.7047 144.553 74 144.553C80.2953 144.553 85.3988 149.656 85.3988 155.951Z" fill="#FFBD42"/>
<path d="M147.744 47.7591C147.744 54.0544 142.64 59.1579 136.345 59.1579C130.049 59.1579 124.946 54.0544 124.946 47.7591C124.946 41.4638 130.049 36.3604 136.345 36.3604C142.64 36.3604 147.744 41.4638 147.744 47.7591Z" fill="#FFBD42"/>
<path d="M23.0534 47.7591C23.0534 54.0544 17.95 59.1579 11.6546 59.1579C5.35932 59.1579 0.25589 54.0544 0.25589 47.7591C0.25589 41.4638 5.35932 36.3604 11.6546 36.3604C17.95 36.3604 23.0534 41.4638 23.0534 47.7591Z" fill="#FFBD42"/>
<g style="mix-blend-mode:overlay" opacity="0.1">
<path d="M11.6546 36.3604C17.95 36.3604 23.0534 41.4638 23.0534 47.7591C23.0534 54.0544 17.95 59.1579 11.6546 59.1579C5.35932 59.1579 0.25589 54.0544 0.25589 47.7591" fill="#FFBD42"/>
</g>
<path d="M101.259 83.9599C101.259 99.0144 89.0545 111.219 74 111.219C58.9455 111.219 46.7413 99.0144 46.7413 83.9599C46.7413 68.9053 58.9455 56.7012 74 56.7012C89.0545 56.7012 101.259 68.9053 101.259 83.9599Z" fill="#FFBD42"/>
</svg>
